<svg width="1136" height="576" viewBox="0 0 1136 576" fill="none" xmlns="http://www.w3.org/2000/svg">
<g clip-path="url(#clip0_709_62)">
<path d="M1137.84 578.71L-3.41016 578.7L-0.990156 -1.68994H1137.84V578.71Z" fill="#271D7C"/>
<path d="M567.209 38.8801C533.979 38.8801 504.309 57.5901 488.439 86.2601C484.439 85.5201 480.439 84.3201 476.379 84.2601C458.449 84.4773 441.327 91.7524 428.724 104.508C416.122 117.265 409.055 134.474 409.055 152.405C409.055 170.337 416.122 187.546 428.724 200.302C441.327 213.058 458.449 220.333 476.379 220.55H669.429C684.491 220.55 698.936 214.567 709.586 203.917C720.236 193.266 726.219 178.822 726.219 163.76C726.219 148.698 720.236 134.254 709.586 123.603C698.936 112.953 684.491 106.97 669.429 106.97C664.189 106.97 658.509 107.5 653.789 109.28C644.889 68.1701 610.459 38.8401 567.229 38.8301L567.209 38.8801Z" fill="url(#paint0_linear_709_62)"/>
<path d="M182.85 261.71C207.234 261.71 230.619 271.396 247.862 288.639C265.104 305.881 274.79 329.266 274.79 353.65V578.71H90.9102V353.65C90.9102 329.266 100.597 305.881 117.839 288.639C135.081 271.396 158.466 261.71 182.85 261.71Z" fill="#190F67"/>
<path d="M865.17 -1.68994H1049.05V120.68C1049.05 132.754 1046.67 144.709 1042.05 155.864C1037.43 167.019 1030.66 177.154 1022.12 185.691C1013.58 194.229 1003.45 201.001 992.294 205.622C981.139 210.242 969.184 212.62 957.11 212.62C932.726 212.62 909.341 202.934 892.099 185.691C874.856 168.449 865.17 145.064 865.17 120.68V-1.68994Z" fill="#190F67"/>
<path d="M999.49 93.5601C1008.49 93.5601 1008.49 99.5601 1017.56 99.5601C1026.63 99.5601 1026.56 93.5601 1035.63 93.5601C1044.7 93.5601 1044.63 99.5601 1053.71 99.5601C1062.79 99.5601 1062.71 93.5601 1071.79 93.5601C1080.87 93.5601 1080.79 99.5601 1089.87 99.5601" stroke="#FFB400" stroke-width="3" stroke-miterlimit="10"/>
<path d="M45.7207 416.15C54.7207 416.15 54.7207 422.15 63.7907 422.15C72.8607 422.15 72.7907 416.15 81.8607 416.15C90.9307 416.15 90.8607 422.15 99.9407 422.15C109.021 422.15 108.941 416.15 118.021 416.15C127.101 416.15 127.021 422.15 136.101 422.15" stroke="#FFB400" stroke-width="3" stroke-miterlimit="10"/>
<path d="M1062.89 461.65C1065.1 461.65 1066.89 459.859 1066.89 457.65C1066.89 455.441 1065.1 453.65 1062.89 453.65C1060.68 453.65 1058.89 455.441 1058.89 457.65C1058.89 459.859 1060.68 461.65 1062.89 461.65Z" fill="white"/>
<path d="M993.74 353.27H954C949.35 353.27 945.58 357.04 945.58 361.69V361.7C945.58 366.35 949.35 370.12 954 370.12H993.74C998.39 370.12 1002.16 366.35 1002.16 361.7V361.69C1002.16 357.04 998.39 353.27 993.74 353.27Z" stroke="white" stroke-width="2" stroke-miterlimit="10"/>
<path d="M213.32 64.77H173.58C168.93 64.77 165.16 68.5398 165.16 73.19V73.2C165.16 77.8503 168.93 81.62 173.58 81.62H213.32C217.97 81.62 221.74 77.8503 221.74 73.2V73.19C221.74 68.5398 217.97 64.77 213.32 64.77Z" stroke="white" stroke-width="2" stroke-miterlimit="10"/>
<path d="M1085.5 243.09H1048.27V280.32H1085.5V243.09Z" stroke="#3B2D9A" stroke-width="2" stroke-miterlimit="10"/>
<path d="M74.1398 143.31C75.7303 143.31 77.0198 142.02 77.0198 140.43C77.0198 138.839 75.7303 137.55 74.1398 137.55C72.5492 137.55 71.2598 138.839 71.2598 140.43C71.2598 142.02 72.5492 143.31 74.1398 143.31Z" fill="#2DB976"/>
<path d="M92.5597 143.31C94.1503 143.31 95.4397 142.02 95.4397 140.43C95.4397 138.839 94.1503 137.55 92.5597 137.55C90.9691 137.55 89.6797 138.839 89.6797 140.43C89.6797 142.02 90.9691 143.31 92.5597 143.31Z" fill="#2DB976"/>
<path opacity="0.4" d="M110.989 143.31C112.58 143.31 113.869 142.02 113.869 140.43C113.869 138.839 112.58 137.55 110.989 137.55C109.399 137.55 108.109 138.839 108.109 140.43C108.109 142.02 109.399 143.31 110.989 143.31Z" fill="#BABFCE"/>
<path opacity="0.4" d="M129.409 143.31C131 143.31 132.289 142.02 132.289 140.43C132.289 138.839 131 137.55 129.409 137.55C127.819 137.55 126.529 138.839 126.529 140.43C126.529 142.02 127.819 143.31 129.409 143.31Z" fill="#BABFCE"/>
<path opacity="0.4" d="M147.829 143.31C149.42 143.31 150.709 142.02 150.709 140.43C150.709 138.839 149.42 137.55 147.829 137.55C146.239 137.55 144.949 138.839 144.949 140.43C144.949 142.02 146.239 143.31 147.829 143.31Z" fill="#BABFCE"/>
<path d="M74.1398 159.07C75.7303 159.07 77.0198 157.781 77.0198 156.19C77.0198 154.599 75.7303 153.31 74.1398 153.31C72.5492 153.31 71.2598 154.599 71.2598 156.19C71.2598 157.781 72.5492 159.07 74.1398 159.07Z" fill="#2DB976"/>
<path opacity="0.4" d="M92.5597 159.07C94.1503 159.07 95.4397 157.781 95.4397 156.19C95.4397 154.599 94.1503 153.31 92.5597 153.31C90.9691 153.31 89.6797 154.599 89.6797 156.19C89.6797 157.781 90.9691 159.07 92.5597 159.07Z" fill="#BABFCE"/>
<path opacity="0.4" d="M110.989 159.07C112.58 159.07 113.869 157.781 113.869 156.19C113.869 154.599 112.58 153.31 110.989 153.31C109.399 153.31 108.109 154.599 108.109 156.19C108.109 157.781 109.399 159.07 110.989 159.07Z" fill="#BABFCE"/>
<path opacity="0.4" d="M129.409 159.07C131 159.07 132.289 157.781 132.289 156.19C132.289 154.599 131 153.31 129.409 153.31C127.819 153.31 126.529 154.599 126.529 156.19C126.529 157.781 127.819 159.07 129.409 159.07Z" fill="#BABFCE"/>
<path opacity="0.4" d="M147.829 159.07C149.42 159.07 150.709 157.781 150.709 156.19C150.709 154.599 149.42 153.31 147.829 153.31C146.239 153.31 144.949 154.599 144.949 156.19C144.949 157.781 146.239 159.07 147.829 159.07Z" fill="#BABFCE"/>
<path opacity="0.4" d="M74.1398 174.82C75.7303 174.82 77.0198 173.531 77.0198 171.94C77.0198 170.349 75.7303 169.06 74.1398 169.06C72.5492 169.06 71.2598 170.349 71.2598 171.94C71.2598 173.531 72.5492 174.82 74.1398 174.82Z" fill="#BABFCE"/>
<path opacity="0.4" d="M92.5597 174.82C94.1503 174.82 95.4397 173.531 95.4397 171.94C95.4397 170.349 94.1503 169.06 92.5597 169.06C90.9691 169.06 89.6797 170.349 89.6797 171.94C89.6797 173.531 90.9691 174.82 92.5597 174.82Z" fill="#BABFCE"/>
<path opacity="0.4" d="M110.989 174.82C112.58 174.82 113.869 173.531 113.869 171.94C113.869 170.349 112.58 169.06 110.989 169.06C109.399 169.06 108.109 170.349 108.109 171.94C108.109 173.531 109.399 174.82 110.989 174.82Z" fill="#BABFCE"/>
<path opacity="0.4" d="M129.409 174.82C131 174.82 132.289 173.531 132.289 171.94C132.289 170.349 131 169.06 129.409 169.06C127.819 169.06 126.529 170.349 126.529 171.94C126.529 173.531 127.819 174.82 129.409 174.82Z" fill="#BABFCE"/>
<path opacity="0.4" d="M147.829 174.82C149.42 174.82 150.709 173.531 150.709 171.94C150.709 170.349 149.42 169.06 147.829 169.06C146.239 169.06 144.949 170.349 144.949 171.94C144.949 173.531 146.239 174.82 147.829 174.82Z" fill="#BABFCE"/>
<path opacity="0.4" d="M74.1398 190.58C75.7303 190.58 77.0198 189.29 77.0198 187.7C77.0198 186.109 75.7303 184.82 74.1398 184.82C72.5492 184.82 71.2598 186.109 71.2598 187.7C71.2598 189.29 72.5492 190.58 74.1398 190.58Z" fill="#BABFCE"/>
<path opacity="0.4" d="M92.5597 190.58C94.1503 190.58 95.4397 189.29 95.4397 187.7C95.4397 186.109 94.1503 184.82 92.5597 184.82C90.9691 184.82 89.6797 186.109 89.6797 187.7C89.6797 189.29 90.9691 190.58 92.5597 190.58Z" fill="#BABFCE"/>
<path opacity="0.4" d="M110.989 190.58C112.58 190.58 113.869 189.29 113.869 187.7C113.869 186.109 112.58 184.82 110.989 184.82C109.399 184.82 108.109 186.109 108.109 187.7C108.109 189.29 109.399 190.58 110.989 190.58Z" fill="#BABFCE"/>
<path opacity="0.4" d="M74.1398 206.33C75.7303 206.33 77.0198 205.04 77.0198 203.45C77.0198 201.859 75.7303 200.57 74.1398 200.57C72.5492 200.57 71.2598 201.859 71.2598 203.45C71.2598 205.04 72.5492 206.33 74.1398 206.33Z" fill="#BABFCE"/>
<path opacity="0.4" d="M92.5597 206.33C94.1503 206.33 95.4397 205.04 95.4397 203.45C95.4397 201.859 94.1503 200.57 92.5597 200.57C90.9691 200.57 89.6797 201.859 89.6797 203.45C89.6797 205.04 90.9691 206.33 92.5597 206.33Z" fill="#BABFCE"/>
<path opacity="0.4" d="M110.989 206.33C112.58 206.33 113.869 205.04 113.869 203.45C113.869 201.859 112.58 200.57 110.989 200.57C109.399 200.57 108.109 201.859 108.109 203.45C108.109 205.04 109.399 206.33 110.989 206.33Z" fill="#BABFCE"/>
<path opacity="0.4" d="M951.2 476.29C952.791 476.29 954.08 475 954.08 473.41C954.08 471.819 952.791 470.53 951.2 470.53C949.61 470.53 948.32 471.819 948.32 473.41C948.32 475 949.61 476.29 951.2 476.29Z" fill="#BABFCE"/>
<path opacity="0.4" d="M969.63 476.29C971.221 476.29 972.51 475 972.51 473.41C972.51 471.819 971.221 470.53 969.63 470.53C968.039 470.53 966.75 471.819 966.75 473.41C966.75 475 968.039 476.29 969.63 476.29Z" fill="#BABFCE"/>
<path opacity="0.4" d="M988.05 476.29C989.641 476.29 990.93 475 990.93 473.41C990.93 471.819 989.641 470.53 988.05 470.53C986.459 470.53 985.17 471.819 985.17 473.41C985.17 475 986.459 476.29 988.05 476.29Z" fill="#BABFCE"/>
<path d="M1006.47 476.29C1008.06 476.29 1009.35 475 1009.35 473.41C1009.35 471.819 1008.06 470.53 1006.47 470.53C1004.88 470.53 1003.59 471.819 1003.59 473.41C1003.59 475 1004.88 476.29 1006.47 476.29Z" fill="#FFB400"/>
<path d="M1024.89 476.29C1026.48 476.29 1027.77 475 1027.77 473.41C1027.77 471.819 1026.48 470.53 1024.89 470.53C1023.3 470.53 1022.01 471.819 1022.01 473.41C1022.01 475 1023.3 476.29 1024.89 476.29Z" fill="#FFB400"/>
<path opacity="0.4" d="M951.2 492.04C952.791 492.04 954.08 490.75 954.08 489.16C954.08 487.569 952.791 486.28 951.2 486.28C949.61 486.28 948.32 487.569 948.32 489.16C948.32 490.75 949.61 492.04 951.2 492.04Z" fill="#BABFCE"/>
<path opacity="0.4" d="M969.63 492.04C971.221 492.04 972.51 490.75 972.51 489.16C972.51 487.569 971.221 486.28 969.63 486.28C968.039 486.28 966.75 487.569 966.75 489.16C966.75 490.75 968.039 492.04 969.63 492.04Z" fill="#BABFCE"/>
<path opacity="0.4" d="M988.05 492.04C989.641 492.04 990.93 490.75 990.93 489.16C990.93 487.569 989.641 486.28 988.05 486.28C986.459 486.28 985.17 487.569 985.17 489.16C985.17 490.75 986.459 492.04 988.05 492.04Z" fill="#BABFCE"/>
<path opacity="0.4" d="M1006.47 492.04C1008.06 492.04 1009.35 490.75 1009.35 489.16C1009.35 487.569 1008.06 486.28 1006.47 486.28C1004.88 486.28 1003.59 487.569 1003.59 489.16C1003.59 490.75 1004.88 492.04 1006.47 492.04Z" fill="#BABFCE"/>
<path d="M1024.89 492.04C1026.48 492.04 1027.77 490.75 1027.77 489.16C1027.77 487.569 1026.48 486.28 1024.89 486.28C1023.3 486.28 1022.01 487.569 1022.01 489.16C1022.01 490.75 1023.3 492.04 1024.89 492.04Z" fill="#FFB400"/>
<path opacity="0.4" d="M951.2 507.8C952.791 507.8 954.08 506.511 954.08 504.92C954.08 503.329 952.791 502.04 951.2 502.04C949.61 502.04 948.32 503.329 948.32 504.92C948.32 506.511 949.61 507.8 951.2 507.8Z" fill="#BABFCE"/>
<path opacity="0.4" d="M969.63 507.8C971.221 507.8 972.51 506.511 972.51 504.92C972.51 503.329 971.221 502.04 969.63 502.04C968.039 502.04 966.75 503.329 966.75 504.92C966.75 506.511 968.039 507.8 969.63 507.8Z" fill="#BABFCE"/>
<path opacity="0.4" d="M988.05 507.8C989.641 507.8 990.93 506.511 990.93 504.92C990.93 503.329 989.641 502.04 988.05 502.04C986.459 502.04 985.17 503.329 985.17 504.92C985.17 506.511 986.459 507.8 988.05 507.8Z" fill="#BABFCE"/>
<path opacity="0.4" d="M1006.47 507.8C1008.06 507.8 1009.35 506.511 1009.35 504.92C1009.35 503.329 1008.06 502.04 1006.47 502.04C1004.88 502.04 1003.59 503.329 1003.59 504.92C1003.59 506.511 1004.88 507.8 1006.47 507.8Z" fill="#BABFCE"/>
<path opacity="0.4" d="M1024.89 507.8C1026.48 507.8 1027.77 506.511 1027.77 504.92C1027.77 503.329 1026.48 502.04 1024.89 502.04C1023.3 502.04 1022.01 503.329 1022.01 504.92C1022.01 506.511 1023.3 507.8 1024.89 507.8Z" fill="#BABFCE"/>
<path opacity="0.4" d="M951.2 523.55C952.791 523.55 954.08 522.261 954.08 520.67C954.08 519.079 952.791 517.79 951.2 517.79C949.61 517.79 948.32 519.079 948.32 520.67C948.32 522.261 949.61 523.55 951.2 523.55Z" fill="#BABFCE"/>
<path opacity="0.4" d="M969.63 523.55C971.221 523.55 972.51 522.261 972.51 520.67C972.51 519.079 971.221 517.79 969.63 517.79C968.039 517.79 966.75 519.079 966.75 520.67C966.75 522.261 968.039 523.55 969.63 523.55Z" fill="#BABFCE"/>
<path opacity="0.4" d="M988.05 523.55C989.641 523.55 990.93 522.261 990.93 520.67C990.93 519.079 989.641 517.79 988.05 517.79C986.459 517.79 985.17 519.079 985.17 520.67C985.17 522.261 986.459 523.55 988.05 523.55Z" fill="#BABFCE"/>
<path opacity="0.4" d="M951.2 539.31C952.791 539.31 954.08 538.02 954.08 536.43C954.08 534.839 952.791 533.55 951.2 533.55C949.61 533.55 948.32 534.839 948.32 536.43C948.32 538.02 949.61 539.31 951.2 539.31Z" fill="#BABFCE"/>
<path opacity="0.4" d="M969.63 539.31C971.221 539.31 972.51 538.02 972.51 536.43C972.51 534.839 971.221 533.55 969.63 533.55C968.039 533.55 966.75 534.839 966.75 536.43C966.75 538.02 968.039 539.31 969.63 539.31Z" fill="#BABFCE"/>
<path opacity="0.4" d="M988.05 539.31C989.641 539.31 990.93 538.02 990.93 536.43C990.93 534.839 989.641 533.55 988.05 533.55C986.459 533.55 985.17 534.839 985.17 536.43C985.17 538.02 986.459 539.31 988.05 539.31Z" fill="#BABFCE"/>
<path d="M533.839 287.94H439.369C425.098 287.94 413.529 299.509 413.529 313.78V408.25C413.529 422.521 425.098 434.09 439.369 434.09H533.839C548.11 434.09 559.679 422.521 559.679 408.25V313.78C559.679 299.509 548.11 287.94 533.839 287.94Z" fill="url(#paint1_linear_709_62)"/>
<path d="M365.63 287.94H271.16C256.889 287.94 245.32 299.509 245.32 313.78V408.25C245.32 422.521 256.889 434.09 271.16 434.09H365.63C379.901 434.09 391.47 422.521 391.47 408.25V313.78C391.47 299.509 379.901 287.94 365.63 287.94Z" fill="url(#paint2_linear_709_62)"/>
<path d="M702.05 287.94H607.58C593.309 287.94 581.74 299.509 581.74 313.78V408.25C581.74 422.521 593.309 434.09 607.58 434.09H702.05C716.321 434.09 727.89 422.521 727.89 408.25V313.78C727.89 299.509 716.321 287.94 702.05 287.94Z" fill="url(#paint3_linear_709_62)"/>
<path d="M870.259 287.94H775.789C761.518 287.94 749.949 299.509 749.949 313.78V408.25C749.949 422.521 761.518 434.09 775.789 434.09H870.259C884.53 434.09 896.099 422.521 896.099 408.25V313.78C896.099 299.509 884.53 287.94 870.259 287.94Z" fill="url(#paint4_linear_709_62)"/>
<path opacity="0.3" d="M521.411 220.58C521.411 224.52 520.635 228.421 519.127 232.061C517.619 235.7 515.41 239.008 512.624 241.793C509.838 244.579 506.531 246.789 502.891 248.296C499.251 249.804 495.35 250.58 491.411 250.58H348.441C340.471 250.58 332.828 253.746 327.192 259.382C321.557 265.017 318.391 272.66 318.391 280.63V287.9" stroke="white" stroke-width="2" stroke-miterlimit="10"/>
<path opacity="0.3" d="M618.42 220.58C618.42 224.524 619.198 228.429 620.708 232.072C622.219 235.715 624.433 239.025 627.224 241.811C630.015 244.597 633.329 246.806 636.974 248.311C640.62 249.816 644.526 250.587 648.47 250.58H791.4C795.344 250.58 799.249 251.358 802.892 252.868C806.535 254.379 809.844 256.593 812.631 259.385C815.417 262.176 817.626 265.489 819.131 269.134C820.635 272.78 821.407 276.686 821.4 280.63V287.9" stroke="white" stroke-width="2" stroke-miterlimit="10"/>
<path opacity="0.3" d="M551.921 219.87V234.4C551.922 239.062 551.005 243.678 549.222 247.985C547.439 252.292 544.825 256.205 541.529 259.502C538.234 262.798 534.321 265.413 530.014 267.198C525.708 268.982 521.092 269.9 516.431 269.9H514.641C509.867 269.9 505.288 271.797 501.913 275.172C498.537 278.548 496.641 283.126 496.641 287.9" stroke="white" stroke-width="2" stroke-miterlimit="10"/>
<path opacity="0.3" d="M589.5 219.87V234.4C589.5 243.815 593.24 252.845 599.898 259.502C606.555 266.16 615.585 269.9 625 269.9H626.78C631.554 269.9 636.132 271.797 639.508 275.172C642.884 278.548 644.78 283.126 644.78 287.9" stroke="white" stroke-width="2" stroke-miterlimit="10"/>
<path d="M568.329 208.47C604.487 208.47 633.799 179.158 633.799 143C633.799 106.842 604.487 77.5298 568.329 77.5298C532.171 77.5298 502.859 106.842 502.859 143C502.859 179.158 532.171 208.47 568.329 208.47Z" fill="url(#paint5_linear_709_62)"/>
<path d="M546.659 151.543C546.659 150.408 546.258 149.539 545.456 148.938C544.654 148.323 543.211 147.682 541.127 147.013C539.042 146.332 537.392 145.664 536.176 145.009C532.862 143.218 531.205 140.807 531.205 137.773C531.205 136.196 531.646 134.793 532.528 133.564C533.423 132.321 534.699 131.352 536.356 130.658C538.027 129.963 539.897 129.615 541.969 129.615C544.053 129.615 545.911 129.996 547.541 130.758C549.171 131.506 550.434 132.568 551.329 133.945C552.238 135.321 552.692 136.885 552.692 138.635H546.679C546.679 137.299 546.258 136.263 545.416 135.528C544.574 134.78 543.392 134.406 541.868 134.406C540.398 134.406 539.256 134.72 538.441 135.348C537.626 135.963 537.218 136.778 537.218 137.793C537.218 138.742 537.692 139.537 538.641 140.178C539.603 140.82 541.013 141.421 542.871 141.982C546.291 143.011 548.783 144.288 550.347 145.811C551.91 147.334 552.692 149.232 552.692 151.503C552.692 154.029 551.737 156.013 549.826 157.456C547.915 158.886 545.343 159.601 542.109 159.601C539.864 159.601 537.819 159.194 535.975 158.378C534.131 157.55 532.722 156.421 531.746 154.991C530.784 153.561 530.303 151.904 530.303 150.02H536.336C536.336 153.24 538.26 154.851 542.109 154.851C543.539 154.851 544.654 154.563 545.456 153.989C546.258 153.401 546.659 152.586 546.659 151.543ZM571.914 151.543C571.914 150.408 571.513 149.539 570.712 148.938C569.91 148.323 568.467 147.682 566.382 147.013C564.297 146.332 562.647 145.664 561.431 145.009C558.117 143.218 556.46 140.807 556.46 137.773C556.46 136.196 556.901 134.793 557.783 133.564C558.678 132.321 559.955 131.352 561.612 130.658C563.282 129.963 565.153 129.615 567.224 129.615C569.308 129.615 571.166 129.996 572.796 130.758C574.426 131.506 575.689 132.568 576.584 133.945C577.493 135.321 577.947 136.885 577.947 138.635H571.934C571.934 137.299 571.513 136.263 570.671 135.528C569.83 134.78 568.647 134.406 567.124 134.406C565.654 134.406 564.511 134.72 563.696 135.348C562.881 135.963 562.473 136.778 562.473 137.793C562.473 138.742 562.948 139.537 563.897 140.178C564.859 140.82 566.268 141.421 568.126 141.982C571.547 143.011 574.039 144.288 575.602 145.811C577.166 147.334 577.947 149.232 577.947 151.503C577.947 154.029 576.992 156.013 575.081 157.456C573.17 158.886 570.598 159.601 567.364 159.601C565.119 159.601 563.075 159.194 561.231 158.378C559.387 157.55 557.977 156.421 557.001 154.991C556.039 153.561 555.558 151.904 555.558 150.02H561.592C561.592 153.24 563.516 154.851 567.364 154.851C568.794 154.851 569.91 154.563 570.712 153.989C571.513 153.401 571.914 152.586 571.914 151.543ZM606.009 145.27C606.009 148.143 605.501 150.661 604.486 152.826C603.47 154.991 602.014 156.661 600.116 157.837C598.232 159.013 596.067 159.601 593.622 159.601C591.203 159.601 589.045 159.02 587.148 157.857C585.25 156.695 583.78 155.038 582.738 152.886C581.696 150.722 581.168 148.236 581.154 145.43V143.987C581.154 141.114 581.669 138.588 582.698 136.41C583.74 134.219 585.203 132.542 587.087 131.379C588.985 130.203 591.15 129.615 593.582 129.615C596.014 129.615 598.172 130.203 600.056 131.379C601.953 132.542 603.417 134.219 604.446 136.41C605.488 138.588 606.009 141.107 606.009 143.967V145.27ZM599.916 143.947C599.916 140.887 599.368 138.562 598.272 136.971C597.176 135.381 595.613 134.586 593.582 134.586C591.564 134.586 590.007 135.375 588.911 136.951C587.816 138.515 587.261 140.813 587.248 143.847V145.27C587.248 148.25 587.796 150.561 588.891 152.205C589.987 153.848 591.564 154.67 593.622 154.67C595.64 154.67 597.19 153.882 598.272 152.305C599.354 150.715 599.902 148.403 599.916 145.37V143.947Z" fill="white"/>
<path d="M362.38 361.01C362.38 336.715 342.685 317.02 318.39 317.02C294.095 317.02 274.4 336.715 274.4 361.01C274.4 385.305 294.095 405 318.39 405C342.685 405 362.38 385.305 362.38 361.01Z" fill="#2DB976"/>
<path d="M530.589 361.01C530.589 336.715 510.894 317.02 486.599 317.02C462.304 317.02 442.609 336.715 442.609 361.01C442.609 385.305 462.304 405 486.599 405C510.894 405 530.589 385.305 530.589 361.01Z" fill="white"/>
<path d="M326.4 367.06C326.051 367.078 325.703 367.024 325.376 366.902C325.049 366.78 324.75 366.593 324.498 366.351C324.246 366.109 324.046 365.819 323.911 365.497C323.775 365.175 323.707 364.829 323.71 364.48V363C325.683 361.073 327.218 358.744 328.21 356.17C328.301 355.965 328.439 355.784 328.613 355.642C328.786 355.499 328.991 355.399 329.21 355.35C329.65 354.766 329.93 354.076 330.02 353.35C330.197 352.614 330.231 351.85 330.12 351.1C330.12 350.89 330.05 350.74 330.02 350.64C329.875 350.569 329.74 350.478 329.62 350.37C329.479 350.231 329.368 350.064 329.294 349.88C329.22 349.696 329.185 349.498 329.19 349.3C329.19 349.24 329.37 343.16 325.99 339.7C325.135 338.868 324.114 338.224 322.995 337.81C321.875 337.397 320.681 337.223 319.49 337.3C318.79 337.3 318.1 337.3 317.39 337.3C316.2 337.215 315.005 337.385 313.886 337.799C312.767 338.213 311.749 338.861 310.9 339.7C307.52 343.16 307.69 349.24 307.69 349.3C307.698 349.499 307.664 349.697 307.589 349.881C307.515 350.066 307.403 350.232 307.26 350.37C307.14 350.478 307.005 350.569 306.86 350.64C306.86 350.74 306.8 350.89 306.76 351.1C306.641 351.849 306.671 352.614 306.85 353.35C306.944 354.075 307.223 354.764 307.66 355.35C307.881 355.396 308.087 355.494 308.261 355.637C308.435 355.78 308.572 355.963 308.66 356.17C309.671 358.805 311.26 361.18 313.31 363.12V364.47C313.309 364.81 313.24 365.147 313.109 365.461C312.978 365.774 312.786 366.059 312.544 366.299C312.303 366.538 312.017 366.728 311.702 366.857C311.387 366.986 311.05 367.051 310.71 367.05H310.14C302.73 367.05 296.72 374.21 296.72 383.05C296.698 383.34 296.79 383.627 296.977 383.849C297.164 384.072 297.431 384.212 297.72 384.24H339.52C339.716 384.22 339.897 384.124 340.024 383.973C340.151 383.822 340.214 383.627 340.2 383.43C340.13 374.4 334 367.06 326.4 367.06Z" fill="white"/>
<path d="M471 352.67H502.27C503.331 352.67 504.348 353.091 505.098 353.841C505.849 354.592 506.27 355.609 506.27 356.67V367.42C506.266 369.998 505.754 372.549 504.763 374.929C503.772 377.309 502.321 379.47 500.495 381.288C498.668 383.107 496.5 384.547 494.116 385.527C491.732 386.507 489.178 387.008 486.6 387C484.025 386.999 481.475 386.49 479.096 385.503C476.718 384.517 474.557 383.071 472.737 381.249C470.917 379.427 469.473 377.265 468.489 374.885C467.505 372.505 466.999 369.955 467 367.38V356.64C467.008 355.584 467.433 354.575 468.182 353.831C468.931 353.087 469.944 352.67 471 352.67Z" fill="#2DB976"/>
<path d="M486.6 375.74C490.836 375.74 494.27 372.306 494.27 368.07C494.27 363.834 490.836 360.4 486.6 360.4C482.364 360.4 478.93 363.834 478.93 368.07C478.93 372.306 482.364 375.74 486.6 375.74Z" fill="white"/>
<path d="M486.6 365.08V371.07" stroke="#2DB976" stroke-width="2" stroke-miterlimit="10"/>
<path d="M477.119 352.67V342.4C477.119 338.09 481.359 334.59 486.599 334.59C491.839 334.59 496.089 338.09 496.089 342.4V352.67" stroke="#2DB976" stroke-width="3" stroke-miterlimit="10"/>
<path opacity="0.6" d="M657.381 318C657.381 318 637.251 333.79 617.461 329.59C617.461 329.59 621.241 389.78 657.381 403.96C693.531 389.78 697.311 329.59 697.311 329.59C677.521 333.82 657.381 318 657.381 318Z" fill="white"/>
<path d="M657.381 326.54C663.621 330.54 675.851 337.01 689.381 337.32C688.257 344.876 686.514 352.328 684.171 359.6C679.901 372.6 671.831 389.26 657.401 396.35C642.971 389.26 634.911 372.65 630.631 359.6C628.289 352.328 626.546 344.876 625.421 337.32C638.931 337.01 651.171 330.5 657.421 326.54H657.381ZM657.421 318.03C657.421 318.03 641.741 330.33 624.421 330.33C622.085 330.34 619.756 330.102 617.471 329.62C617.471 329.62 621.251 389.81 657.391 403.99C693.541 389.81 697.321 329.62 697.321 329.62C695.019 330.105 692.673 330.343 690.321 330.33C673.031 330.33 657.321 318.03 657.321 318.03H657.421Z" fill="#2DB976"/>
<path d="M657.379 372.28C664.702 372.28 670.639 366.343 670.639 359.02C670.639 351.696 664.702 345.76 657.379 345.76C650.056 345.76 644.119 351.696 644.119 359.02C644.119 366.343 650.056 372.28 657.379 372.28Z" fill="#2DB976"/>
<path d="M650.73 360.59L656.44 364.51L664.98 354.98" stroke="white" stroke-width="2" stroke-linecap="round" stroke-linejoin="round"/>
<path opacity="0.6" d="M862.431 353.4H783.641C777.472 353.4 772.471 358.401 772.471 364.57V364.58C772.471 370.749 777.472 375.75 783.641 375.75H862.431C868.6 375.75 873.601 370.749 873.601 364.58V364.57C873.601 358.401 868.6 353.4 862.431 353.4Z" fill="white"/>
<path opacity="0.6" d="M862.431 325.92H783.641C777.472 325.92 772.471 330.921 772.471 337.09V337.1C772.471 343.269 777.472 348.27 783.641 348.27H862.431C868.6 348.27 873.601 343.269 873.601 337.1V337.09C873.601 330.921 868.6 325.92 862.431 325.92Z" fill="white"/>
<path d="M862.431 383.88H783.641C777.472 383.88 772.471 388.881 772.471 395.05V395.06C772.471 401.229 777.472 406.23 783.641 406.23H862.431C868.6 406.23 873.601 401.229 873.601 395.06V395.05C873.601 388.881 868.6 383.88 862.431 383.88Z" fill="white"/>
<path d="M837.32 392.23H808.75C807.192 392.23 805.93 393.493 805.93 395.05V395.06C805.93 396.617 807.192 397.88 808.75 397.88H837.32C838.877 397.88 840.14 396.617 840.14 395.06V395.05C840.14 393.493 838.877 392.23 837.32 392.23Z" fill="#F7AC00"/>
<path d="M834.329 361.69H805.759C804.202 361.69 802.939 362.953 802.939 364.51V364.52C802.939 366.077 804.202 367.34 805.759 367.34H834.329C835.887 367.34 837.149 366.077 837.149 364.52V364.51C837.149 362.953 835.887 361.69 834.329 361.69Z" fill="#F7AC00"/>
<path d="M821.159 334.27H805.759C804.202 334.27 802.939 335.533 802.939 337.09V337.1C802.939 338.657 804.202 339.92 805.759 339.92H821.159C822.717 339.92 823.979 338.657 823.979 337.1V337.09C823.979 335.533 822.717 334.27 821.159 334.27Z" fill="#F7AC00"/>
<path d="M783.751 348.43C789.981 348.43 795.031 343.38 795.031 337.15C795.031 330.92 789.981 325.87 783.751 325.87C777.521 325.87 772.471 330.92 772.471 337.15C772.471 343.38 777.521 348.43 783.751 348.43Z" fill="white"/>
<path d="M777.99 338.38L783.03 341.85L790.58 333.43" stroke="#2DB976" stroke-width="2" stroke-linecap="round" stroke-linejoin="round"/>
<path d="M783.751 375.85C789.981 375.85 795.031 370.8 795.031 364.57C795.031 358.34 789.981 353.29 783.751 353.29C777.521 353.29 772.471 358.34 772.471 364.57C772.471 370.8 777.521 375.85 783.751 375.85Z" fill="white"/>
<path d="M777.99 365.8L783.03 369.27L790.58 360.85" stroke="#2DB976" stroke-width="2" stroke-linecap="round" stroke-linejoin="round"/>
<path d="M882.69 323.77C882.69 309.383 871.027 297.72 856.64 297.72C842.253 297.72 830.59 309.383 830.59 323.77C830.59 338.157 842.253 349.82 856.64 349.82C871.027 349.82 882.69 338.157 882.69 323.77Z" fill="white"/>
<path d="M861.381 327.34C861.174 327.349 860.967 327.317 860.774 327.244C860.58 327.172 860.403 327.06 860.253 326.917C860.104 326.774 859.985 326.602 859.903 326.412C859.822 326.222 859.78 326.017 859.781 325.81V325C860.945 323.871 861.855 322.508 862.451 321C862.499 320.877 862.578 320.767 862.679 320.682C862.78 320.596 862.901 320.537 863.031 320.51C863.287 320.167 863.452 319.764 863.511 319.34C863.615 318.904 863.635 318.453 863.571 318.01C863.571 317.89 863.571 317.79 863.511 317.73C863.421 317.693 863.339 317.639 863.271 317.57C863.186 317.489 863.12 317.391 863.077 317.282C863.033 317.174 863.014 317.057 863.021 316.94C863.021 316.94 863.121 313.3 861.121 311.26C860.616 310.764 860.012 310.382 859.348 310.137C858.684 309.892 857.976 309.791 857.271 309.84H856.001C855.296 309.787 854.589 309.887 853.926 310.132C853.263 310.377 852.661 310.761 852.161 311.26C850.161 313.26 850.261 316.91 850.261 316.94C850.267 317.058 850.247 317.175 850.202 317.284C850.157 317.393 850.088 317.491 850.001 317.57C849.936 317.638 849.857 317.693 849.771 317.73C849.744 317.822 849.724 317.915 849.711 318.01C849.622 318.449 849.622 318.901 849.711 319.34C849.769 319.764 849.935 320.167 850.191 320.51C850.32 320.538 850.44 320.597 850.542 320.683C850.643 320.768 850.721 320.877 850.771 321C851.369 322.558 852.308 323.963 853.521 325.11V325.91C853.518 326.317 853.355 326.706 853.066 326.992C852.778 327.279 852.387 327.44 851.981 327.44H851.641C847.261 327.44 843.701 331.68 843.701 336.92C843.689 337.09 843.745 337.258 843.855 337.389C843.965 337.519 844.121 337.602 844.291 337.62H869.041C869.156 337.61 869.262 337.555 869.337 337.467C869.412 337.379 869.449 337.265 869.441 337.15C869.511 331.69 865.871 327.34 861.381 327.34Z" fill="#2DB976"/>
<path d="M297.252 465.45H303.316V466.83H295.556V454.033H297.252V465.45ZM304.556 461.987C304.556 461.056 304.737 460.218 305.101 459.474C305.47 458.729 305.979 458.155 306.63 457.751C307.286 457.347 308.033 457.145 308.871 457.145C310.166 457.145 311.212 457.593 312.009 458.489C312.812 459.386 313.213 460.578 313.213 462.066V462.181C313.213 463.106 313.034 463.938 312.677 464.677C312.325 465.409 311.818 465.98 311.156 466.391C310.5 466.801 309.744 467.006 308.889 467.006C307.6 467.006 306.554 466.558 305.751 465.661C304.954 464.765 304.556 463.578 304.556 462.102V461.987ZM306.19 462.181C306.19 463.235 306.434 464.082 306.92 464.721C307.412 465.359 308.068 465.679 308.889 465.679C309.715 465.679 310.371 465.356 310.857 464.712C311.344 464.062 311.587 463.153 311.587 461.987C311.587 460.944 311.338 460.101 310.84 459.456C310.348 458.806 309.691 458.48 308.871 458.48C308.068 458.48 307.421 458.8 306.929 459.438C306.437 460.077 306.19 460.991 306.19 462.181ZM314.865 461.996C314.865 460.514 315.208 459.336 315.894 458.463C316.579 457.584 317.487 457.145 318.618 457.145C319.778 457.145 320.684 457.555 321.334 458.375L321.413 457.32H322.898V466.602C322.898 467.832 322.532 468.802 321.8 469.511C321.073 470.22 320.095 470.574 318.864 470.574C318.179 470.574 317.508 470.428 316.852 470.135C316.195 469.842 315.694 469.44 315.349 468.931L316.192 467.955C316.89 468.816 317.742 469.247 318.75 469.247C319.541 469.247 320.156 469.024 320.596 468.579C321.041 468.134 321.264 467.507 321.264 466.698V465.881C320.613 466.631 319.726 467.006 318.601 467.006C317.487 467.006 316.585 466.558 315.894 465.661C315.208 464.765 314.865 463.543 314.865 461.996ZM316.5 462.181C316.5 463.253 316.72 464.097 317.159 464.712C317.599 465.321 318.214 465.626 319.005 465.626C320.03 465.626 320.783 465.16 321.264 464.229V459.887C320.766 458.979 320.019 458.524 319.022 458.524C318.231 458.524 317.613 458.832 317.168 459.447C316.723 460.062 316.5 460.974 316.5 462.181ZM327.126 466.83H325.5V457.32H327.126V466.83ZM325.368 454.798C325.368 454.534 325.447 454.312 325.605 454.13C325.77 453.948 326.01 453.857 326.326 453.857C326.643 453.857 326.883 453.948 327.047 454.13C327.211 454.312 327.293 454.534 327.293 454.798C327.293 455.062 327.211 455.281 327.047 455.457C326.883 455.633 326.643 455.721 326.326 455.721C326.01 455.721 325.77 455.633 325.605 455.457C325.447 455.281 325.368 455.062 325.368 454.798ZM331.274 457.32L331.327 458.516C332.054 457.602 333.003 457.145 334.175 457.145C336.185 457.145 337.198 458.278 337.216 460.546V466.83H335.59V460.537C335.584 459.852 335.426 459.345 335.115 459.017C334.811 458.688 334.333 458.524 333.683 458.524C333.155 458.524 332.692 458.665 332.294 458.946C331.896 459.228 331.585 459.597 331.362 460.054V466.83H329.736V457.32H331.274Z" fill="white"/>
<path d="M459.013 461.82V466.83H457.325V454.033H462.045C463.445 454.033 464.541 454.391 465.332 455.105C466.129 455.82 466.527 456.767 466.527 457.944C466.527 459.187 466.138 460.145 465.358 460.818C464.585 461.486 463.475 461.82 462.027 461.82H459.013ZM459.013 460.44H462.045C462.947 460.44 463.639 460.229 464.119 459.808C464.6 459.38 464.84 458.765 464.84 457.962C464.84 457.2 464.6 456.591 464.119 456.134C463.639 455.677 462.979 455.439 462.142 455.422H459.013V460.44ZM474.191 466.83C474.098 466.643 474.021 466.309 473.963 465.828C473.207 466.613 472.305 467.006 471.256 467.006C470.318 467.006 469.548 466.742 468.944 466.215C468.347 465.682 468.048 465.008 468.048 464.193C468.048 463.203 468.423 462.436 469.173 461.891C469.929 461.34 470.989 461.064 472.354 461.064H473.937V460.317C473.937 459.749 473.767 459.298 473.427 458.964C473.087 458.624 472.586 458.454 471.924 458.454C471.344 458.454 470.857 458.601 470.465 458.894C470.072 459.187 469.876 459.541 469.876 459.957H468.241C468.241 459.482 468.408 459.025 468.742 458.586C469.082 458.141 469.539 457.789 470.113 457.531C470.693 457.273 471.329 457.145 472.021 457.145C473.116 457.145 473.975 457.42 474.596 457.971C475.217 458.516 475.539 459.269 475.562 460.229V464.606C475.562 465.479 475.674 466.174 475.896 466.689V466.83H474.191ZM471.493 465.591C472.003 465.591 472.486 465.459 472.943 465.195C473.4 464.932 473.731 464.589 473.937 464.167V462.216H472.662C470.67 462.216 469.674 462.799 469.674 463.965C469.674 464.475 469.844 464.873 470.184 465.16C470.523 465.447 470.96 465.591 471.493 465.591ZM483.648 464.308C483.648 463.868 483.481 463.528 483.147 463.288C482.819 463.042 482.242 462.831 481.416 462.655C480.596 462.479 479.942 462.269 479.456 462.022C478.976 461.776 478.618 461.483 478.384 461.144C478.155 460.804 478.041 460.399 478.041 459.931C478.041 459.151 478.369 458.492 479.025 457.953C479.688 457.414 480.531 457.145 481.557 457.145C482.635 457.145 483.508 457.423 484.176 457.979C484.85 458.536 485.187 459.248 485.187 460.115H483.552C483.552 459.67 483.361 459.286 482.98 458.964C482.605 458.642 482.131 458.48 481.557 458.48C480.965 458.48 480.502 458.609 480.168 458.867C479.834 459.125 479.667 459.462 479.667 459.878C479.667 460.271 479.822 460.566 480.133 460.766C480.443 460.965 481.003 461.155 481.812 461.337C482.626 461.519 483.285 461.735 483.789 461.987C484.293 462.239 484.665 462.544 484.905 462.901C485.151 463.253 485.274 463.684 485.274 464.193C485.274 465.043 484.935 465.726 484.255 466.241C483.575 466.751 482.693 467.006 481.609 467.006C480.848 467.006 480.174 466.871 479.588 466.602C479.002 466.332 478.542 465.957 478.208 465.477C477.88 464.99 477.716 464.466 477.716 463.903H479.342C479.371 464.448 479.588 464.882 479.992 465.204C480.402 465.521 480.941 465.679 481.609 465.679C482.225 465.679 482.717 465.556 483.086 465.31C483.461 465.058 483.648 464.724 483.648 464.308ZM492.93 464.308C492.93 463.868 492.763 463.528 492.429 463.288C492.101 463.042 491.523 462.831 490.697 462.655C489.877 462.479 489.224 462.269 488.737 462.022C488.257 461.776 487.899 461.483 487.665 461.144C487.437 460.804 487.322 460.399 487.322 459.931C487.322 459.151 487.65 458.492 488.307 457.953C488.969 457.414 489.812 457.145 490.838 457.145C491.916 457.145 492.789 457.423 493.457 457.979C494.131 458.536 494.468 459.248 494.468 460.115H492.833C492.833 459.67 492.643 459.286 492.262 458.964C491.887 458.642 491.412 458.48 490.838 458.48C490.246 458.48 489.783 458.609 489.449 458.867C489.115 459.125 488.948 459.462 488.948 459.878C488.948 460.271 489.104 460.566 489.414 460.766C489.725 460.965 490.284 461.155 491.093 461.337C491.907 461.519 492.566 461.735 493.07 461.987C493.574 462.239 493.946 462.544 494.187 462.901C494.433 463.253 494.556 463.684 494.556 464.193C494.556 465.043 494.216 465.726 493.536 466.241C492.856 466.751 491.975 467.006 490.891 467.006C490.129 467.006 489.455 466.871 488.869 466.602C488.283 466.332 487.823 465.957 487.489 465.477C487.161 464.99 486.997 464.466 486.997 463.903H488.623C488.652 464.448 488.869 464.882 489.273 465.204C489.684 465.521 490.223 465.679 490.891 465.679C491.506 465.679 491.998 465.556 492.367 465.31C492.742 465.058 492.93 464.724 492.93 464.308ZM505.094 464.589L506.922 457.32H508.548L505.779 466.83H504.461L502.149 459.623L499.899 466.83H498.581L495.821 457.32H497.438L499.311 464.439L501.525 457.32H502.835L505.094 464.589ZM509.778 461.987C509.778 461.056 509.96 460.218 510.323 459.474C510.692 458.729 511.202 458.155 511.853 457.751C512.509 457.347 513.256 457.145 514.094 457.145C515.389 457.145 516.435 457.593 517.231 458.489C518.034 459.386 518.436 460.578 518.436 462.066V462.181C518.436 463.106 518.257 463.938 517.899 464.677C517.548 465.409 517.041 465.98 516.379 466.391C515.723 466.801 514.967 467.006 514.111 467.006C512.822 467.006 511.776 466.558 510.974 465.661C510.177 464.765 509.778 463.578 509.778 462.102V461.987ZM511.413 462.181C511.413 463.235 511.656 464.082 512.143 464.721C512.635 465.359 513.291 465.679 514.111 465.679C514.938 465.679 515.594 465.356 516.08 464.712C516.566 464.062 516.81 463.153 516.81 461.987C516.81 460.944 516.561 460.101 516.062 459.456C515.57 458.806 514.914 458.48 514.094 458.48C513.291 458.48 512.644 458.8 512.151 459.438C511.659 460.077 511.413 460.991 511.413 462.181ZM525.071 458.779C524.825 458.738 524.559 458.718 524.271 458.718C523.205 458.718 522.481 459.172 522.101 460.08V466.83H520.475V457.32H522.057L522.083 458.419C522.616 457.569 523.372 457.145 524.351 457.145C524.667 457.145 524.907 457.186 525.071 457.268V458.779ZM526.003 461.996C526.003 460.537 526.349 459.365 527.04 458.48C527.731 457.59 528.637 457.145 529.756 457.145C530.869 457.145 531.751 457.525 532.401 458.287V453.33H534.027V466.83H532.533L532.454 465.811C531.804 466.607 530.898 467.006 529.738 467.006C528.637 467.006 527.737 466.555 527.04 465.652C526.349 464.75 526.003 463.572 526.003 462.119V461.996ZM527.629 462.181C527.629 463.259 527.852 464.103 528.297 464.712C528.742 465.321 529.357 465.626 530.143 465.626C531.174 465.626 531.927 465.163 532.401 464.237V459.869C531.915 458.973 531.168 458.524 530.16 458.524C529.363 458.524 528.742 458.832 528.297 459.447C527.852 460.062 527.629 460.974 527.629 462.181Z" fill="white"/>
<path d="M626.836 461.126C625.389 460.71 624.334 460.2 623.672 459.597C623.016 458.987 622.688 458.237 622.688 457.347C622.688 456.339 623.089 455.507 623.892 454.851C624.7 454.188 625.749 453.857 627.038 453.857C627.917 453.857 628.699 454.027 629.385 454.367C630.076 454.707 630.609 455.176 630.984 455.773C631.365 456.371 631.556 457.024 631.556 457.733H629.859C629.859 456.96 629.613 456.354 629.121 455.914C628.629 455.469 627.935 455.246 627.038 455.246C626.206 455.246 625.556 455.431 625.087 455.8C624.624 456.163 624.393 456.67 624.393 457.32C624.393 457.842 624.612 458.284 625.052 458.647C625.497 459.005 626.25 459.333 627.311 459.632C628.377 459.931 629.209 460.262 629.807 460.625C630.41 460.982 630.855 461.401 631.143 461.882C631.436 462.362 631.582 462.928 631.582 463.578C631.582 464.615 631.178 465.447 630.369 466.074C629.561 466.695 628.479 467.006 627.126 467.006C626.247 467.006 625.427 466.839 624.665 466.505C623.903 466.165 623.314 465.702 622.898 465.116C622.488 464.53 622.283 463.865 622.283 463.121H623.979C623.979 463.895 624.264 464.507 624.832 464.958C625.406 465.403 626.171 465.626 627.126 465.626C628.017 465.626 628.699 465.444 629.174 465.081C629.648 464.718 629.886 464.223 629.886 463.596C629.886 462.969 629.666 462.485 629.227 462.146C628.787 461.8 627.99 461.46 626.836 461.126ZM637.444 467.006C636.155 467.006 635.106 466.584 634.298 465.74C633.489 464.891 633.085 463.757 633.085 462.339V462.04C633.085 461.097 633.264 460.256 633.621 459.518C633.984 458.773 634.488 458.193 635.133 457.777C635.783 457.355 636.486 457.145 637.242 457.145C638.479 457.145 639.439 457.552 640.125 458.366C640.811 459.181 641.153 460.347 641.153 461.864V462.541H634.711C634.734 463.479 635.007 464.237 635.528 464.817C636.056 465.392 636.724 465.679 637.532 465.679C638.106 465.679 638.593 465.562 638.991 465.327C639.39 465.093 639.738 464.782 640.037 464.396L641.03 465.169C640.233 466.394 639.038 467.006 637.444 467.006ZM637.242 458.48C636.586 458.48 636.035 458.721 635.59 459.201C635.145 459.676 634.869 460.344 634.764 461.205H639.527V461.082C639.48 460.256 639.258 459.617 638.859 459.166C638.461 458.709 637.922 458.48 637.242 458.48ZM646.857 465.679C647.438 465.679 647.944 465.503 648.378 465.151C648.812 464.8 649.052 464.36 649.099 463.833H650.637C650.607 464.378 650.42 464.896 650.074 465.389C649.729 465.881 649.266 466.273 648.686 466.566C648.111 466.859 647.502 467.006 646.857 467.006C645.562 467.006 644.531 466.575 643.764 465.714C643.002 464.847 642.621 463.663 642.621 462.163V461.891C642.621 460.965 642.791 460.142 643.131 459.421C643.471 458.7 643.957 458.141 644.59 457.742C645.229 457.344 645.981 457.145 646.849 457.145C647.915 457.145 648.8 457.464 649.503 458.103C650.212 458.741 650.59 459.57 650.637 460.59H649.099C649.052 459.975 648.817 459.471 648.396 459.078C647.979 458.68 647.464 458.48 646.849 458.48C646.022 458.48 645.381 458.779 644.924 459.377C644.473 459.969 644.247 460.827 644.247 461.952V462.26C644.247 463.355 644.473 464.199 644.924 464.791C645.375 465.383 646.02 465.679 646.857 465.679ZM658.336 465.89C657.703 466.634 656.774 467.006 655.55 467.006C654.536 467.006 653.763 466.713 653.229 466.127C652.702 465.535 652.436 464.662 652.43 463.508V457.32H654.056V463.464C654.056 464.905 654.642 465.626 655.813 465.626C657.056 465.626 657.882 465.163 658.292 464.237V457.32H659.918V466.83H658.371L658.336 465.89ZM666.993 458.779C666.747 458.738 666.48 458.718 666.193 458.718C665.127 458.718 664.403 459.172 664.022 460.08V466.83H662.396V457.32H663.979L664.005 458.419C664.538 457.569 665.294 457.145 666.272 457.145C666.589 457.145 666.829 457.186 666.993 457.268V458.779ZM670.263 466.83H668.637V457.32H670.263V466.83ZM668.505 454.798C668.505 454.534 668.584 454.312 668.742 454.13C668.906 453.948 669.146 453.857 669.463 453.857C669.779 453.857 670.02 453.948 670.184 454.13C670.348 454.312 670.43 454.534 670.43 454.798C670.43 455.062 670.348 455.281 670.184 455.457C670.02 455.633 669.779 455.721 669.463 455.721C669.146 455.721 668.906 455.633 668.742 455.457C668.584 455.281 668.505 455.062 668.505 454.798ZM675.079 455.018V457.32H676.854V458.577H675.079V464.475C675.079 464.855 675.158 465.143 675.316 465.336C675.475 465.523 675.744 465.617 676.125 465.617C676.312 465.617 676.57 465.582 676.898 465.512V466.83C676.471 466.947 676.055 467.006 675.65 467.006C674.924 467.006 674.376 466.786 674.007 466.347C673.638 465.907 673.453 465.283 673.453 464.475V458.577H671.722V457.32H673.453V455.018H675.079ZM681.873 464.448L684.088 457.32H685.828L682.005 468.298C681.413 469.88 680.473 470.671 679.184 470.671L678.876 470.645L678.27 470.53V469.212L678.709 469.247C679.26 469.247 679.688 469.136 679.992 468.913C680.303 468.69 680.558 468.283 680.757 467.691L681.117 466.725L677.725 457.32H679.5L681.873 464.448Z" fill="white"/>
<path d="M766.591 463.49H761.229L760.025 466.83H758.285L763.172 454.033H764.648L769.544 466.83H767.812L766.591 463.49ZM761.739 462.102H766.09L763.91 456.116L761.739 462.102ZM776.777 465.89C776.145 466.634 775.216 467.006 773.991 467.006C772.978 467.006 772.204 466.713 771.671 466.127C771.144 465.535 770.877 464.662 770.871 463.508V457.32H772.497V463.464C772.497 464.905 773.083 465.626 774.255 465.626C775.497 465.626 776.323 465.163 776.733 464.237V457.32H778.359V466.83H776.812L776.777 465.89ZM783.044 455.018V457.32H784.819V458.577H783.044V464.475C783.044 464.855 783.123 465.143 783.281 465.336C783.439 465.523 783.709 465.617 784.09 465.617C784.277 465.617 784.535 465.582 784.863 465.512V466.83C784.436 466.947 784.02 467.006 783.615 467.006C782.889 467.006 782.341 466.786 781.972 466.347C781.603 465.907 781.418 465.283 781.418 464.475V458.577H779.687V457.32H781.418V455.018H783.044ZM788.353 458.472C789.073 457.587 790.011 457.145 791.165 457.145C793.175 457.145 794.188 458.278 794.206 460.546V466.83H792.58V460.537C792.574 459.852 792.416 459.345 792.105 459.017C791.801 458.688 791.323 458.524 790.673 458.524C790.146 458.524 789.683 458.665 789.284 458.946C788.886 459.228 788.575 459.597 788.353 460.054V466.83H786.727V453.33H788.353V458.472ZM800.587 467.006C799.298 467.006 798.249 466.584 797.44 465.74C796.632 464.891 796.228 463.757 796.228 462.339V462.04C796.228 461.097 796.406 460.256 796.764 459.518C797.127 458.773 797.631 458.193 798.275 457.777C798.926 457.355 799.629 457.145 800.385 457.145C801.621 457.145 802.582 457.552 803.268 458.366C803.953 459.181 804.296 460.347 804.296 461.864V462.541H797.854C797.877 463.479 798.149 464.237 798.671 464.817C799.198 465.392 799.866 465.679 800.675 465.679C801.249 465.679 801.735 465.562 802.134 465.327C802.532 465.093 802.881 464.782 803.18 464.396L804.173 465.169C803.376 466.394 802.181 467.006 800.587 467.006ZM800.385 458.48C799.729 458.48 799.178 458.721 798.732 459.201C798.287 459.676 798.012 460.344 797.906 461.205H802.67V461.082C802.623 460.256 802.4 459.617 802.002 459.166C801.604 458.709 801.064 458.48 800.385 458.48ZM807.724 457.32L807.776 458.516C808.503 457.602 809.452 457.145 810.624 457.145C812.634 457.145 813.647 458.278 813.665 460.546V466.83H812.039V460.537C812.033 459.852 811.875 459.345 811.564 459.017C811.26 458.688 810.782 458.524 810.132 458.524C809.604 458.524 809.142 458.665 808.743 458.946C808.345 459.228 808.034 459.597 807.812 460.054V466.83H806.186V457.32H807.724ZM818.323 455.018V457.32H820.099V458.577H818.323V464.475C818.323 464.855 818.402 465.143 818.561 465.336C818.719 465.523 818.988 465.617 819.369 465.617C819.557 465.617 819.814 465.582 820.143 465.512V466.83C819.715 466.947 819.299 467.006 818.895 467.006C818.168 467.006 817.62 466.786 817.251 466.347C816.882 465.907 816.697 465.283 816.697 464.475V458.577H814.966V457.32H816.697V455.018H818.323ZM823.772 466.83H822.146V457.32H823.772V466.83ZM822.015 454.798C822.015 454.534 822.094 454.312 822.252 454.13C822.416 453.948 822.656 453.857 822.973 453.857C823.289 453.857 823.529 453.948 823.693 454.13C823.857 454.312 823.939 454.534 823.939 454.798C823.939 455.062 823.857 455.281 823.693 455.457C823.529 455.633 823.289 455.721 822.973 455.721C822.656 455.721 822.416 455.633 822.252 455.457C822.094 455.281 822.015 455.062 822.015 454.798ZM830.197 465.679C830.777 465.679 831.284 465.503 831.718 465.151C832.151 464.8 832.392 464.36 832.438 463.833H833.977C833.947 464.378 833.76 464.896 833.414 465.389C833.068 465.881 832.605 466.273 832.025 466.566C831.451 466.859 830.842 467.006 830.197 467.006C828.902 467.006 827.871 466.575 827.104 465.714C826.342 464.847 825.961 463.663 825.961 462.163V461.891C825.961 460.965 826.131 460.142 826.471 459.421C826.811 458.7 827.297 458.141 827.93 457.742C828.568 457.344 829.321 457.145 830.188 457.145C831.255 457.145 832.14 457.464 832.843 458.103C833.552 458.741 833.93 459.57 833.977 460.59H832.438C832.392 459.975 832.157 459.471 831.735 459.078C831.319 458.68 830.804 458.48 830.188 458.48C829.362 458.48 828.721 458.779 828.264 459.377C827.812 459.969 827.587 460.827 827.587 461.952V462.26C827.587 463.355 827.812 464.199 828.264 464.791C828.715 465.383 829.359 465.679 830.197 465.679ZM841.676 466.83C841.582 466.643 841.506 466.309 841.447 465.828C840.691 466.613 839.789 467.006 838.74 467.006C837.803 467.006 837.032 466.742 836.429 466.215C835.831 465.682 835.532 465.008 835.532 464.193C835.532 463.203 835.907 462.436 836.657 461.891C837.413 461.34 838.474 461.064 839.839 461.064H841.421V460.317C841.421 459.749 841.251 459.298 840.911 458.964C840.571 458.624 840.07 458.454 839.408 458.454C838.828 458.454 838.342 458.601 837.949 458.894C837.557 459.187 837.36 459.541 837.36 459.957H835.726C835.726 459.482 835.893 459.025 836.227 458.586C836.566 458.141 837.023 457.789 837.598 457.531C838.178 457.273 838.813 457.145 839.505 457.145C840.601 457.145 841.459 457.42 842.08 457.971C842.701 458.516 843.023 459.269 843.047 460.229V464.606C843.047 465.479 843.158 466.174 843.381 466.689V466.83H841.676ZM838.978 465.591C839.487 465.591 839.971 465.459 840.428 465.195C840.885 464.932 841.216 464.589 841.421 464.167V462.216H840.146C838.154 462.216 837.158 462.799 837.158 463.965C837.158 464.475 837.328 464.873 837.668 465.16C838.008 465.447 838.444 465.591 838.978 465.591ZM847.802 455.018V457.32H849.577V458.577H847.802V464.475C847.802 464.855 847.881 465.143 848.039 465.336C848.197 465.523 848.467 465.617 848.848 465.617C849.035 465.617 849.293 465.582 849.621 465.512V466.83C849.193 466.947 848.777 467.006 848.373 467.006C847.646 467.006 847.099 466.786 846.729 466.347C846.36 465.907 846.176 465.283 846.176 464.475V458.577H844.444V457.32H846.176V455.018H847.802ZM853.251 466.83H851.625V457.32H853.251V466.83ZM851.493 454.798C851.493 454.534 851.572 454.312 851.73 454.13C851.895 453.948 852.135 453.857 852.451 453.857C852.768 453.857 853.008 453.948 853.172 454.13C853.336 454.312 853.418 454.534 853.418 454.798C853.418 455.062 853.336 455.281 853.172 455.457C853.008 455.633 852.768 455.721 852.451 455.721C852.135 455.721 851.895 455.633 851.73 455.457C851.572 455.281 851.493 455.062 851.493 454.798ZM855.431 461.987C855.431 461.056 855.612 460.218 855.976 459.474C856.345 458.729 856.854 458.155 857.505 457.751C858.161 457.347 858.908 457.145 859.746 457.145C861.041 457.145 862.087 457.593 862.884 458.489C863.687 459.386 864.088 460.578 864.088 462.066V462.181C864.088 463.106 863.909 463.938 863.552 464.677C863.2 465.409 862.693 465.98 862.031 466.391C861.375 466.801 860.619 467.006 859.764 467.006C858.475 467.006 857.429 466.558 856.626 465.661C855.829 464.765 855.431 463.578 855.431 462.102V461.987ZM857.065 462.181C857.065 463.235 857.309 464.082 857.795 464.721C858.287 465.359 858.943 465.679 859.764 465.679C860.59 465.679 861.246 465.356 861.732 464.712C862.219 464.062 862.462 463.153 862.462 461.987C862.462 460.944 862.213 460.101 861.715 459.456C861.223 458.806 860.566 458.48 859.746 458.48C858.943 458.48 858.296 458.8 857.804 459.438C857.312 460.077 857.065 460.991 857.065 462.181ZM867.665 457.32L867.718 458.516C868.444 457.602 869.394 457.145 870.565 457.145C872.575 457.145 873.589 458.278 873.606 460.546V466.83H871.98V460.537C871.975 459.852 871.816 459.345 871.506 459.017C871.201 458.688 870.724 458.524 870.073 458.524C869.546 458.524 869.083 458.665 868.685 458.946C868.286 459.228 867.976 459.597 867.753 460.054V466.83H866.127V457.32H867.665Z" fill="white"/>
<path d="M457.25 254.26C459.559 254.26 461.43 252.388 461.43 250.08C461.43 247.771 459.559 245.9 457.25 245.9C454.942 245.9 453.07 247.771 453.07 250.08C453.07 252.388 454.942 254.26 457.25 254.26Z" fill="#2DB976"/>
<path d="M693.129 254.26C695.438 254.26 697.309 252.388 697.309 250.08C697.309 247.771 695.438 245.9 693.129 245.9C690.821 245.9 688.949 247.771 688.949 250.08C688.949 252.388 690.821 254.26 693.129 254.26Z" fill="#FAB000"/>
<path d="M551.92 240.8C554.229 240.8 556.1 238.928 556.1 236.62C556.1 234.311 554.229 232.44 551.92 232.44C549.612 232.44 547.74 234.311 547.74 236.62C547.74 238.928 549.612 240.8 551.92 240.8Z" fill="#FAB000"/>
<path d="M626.459 273.5C628.768 273.5 630.639 271.629 630.639 269.32C630.639 267.012 628.768 265.14 626.459 265.14C624.151 265.14 622.279 267.012 622.279 269.32C622.279 271.629 624.151 273.5 626.459 273.5Z" fill="#2DB976"/>
</g>
<defs>
<linearGradient id="paint0_linear_709_62" x1="408.209" y1="129.74" x2="726.219" y2="129.74" gradientUnits="userSpaceOnUse">
<stop stop-color="#DEE1EC"/>
<stop offset="0.52" stop-color="#EDEEF5"/>
<stop offset="1" stop-color="#F5F6FA"/>
</linearGradient>
<linearGradient id="paint1_linear_709_62" x1="486.599" y1="434.09" x2="486.599" y2="287.94" gradientUnits="userSpaceOnUse">
<stop offset="0.34" stop-color="#DB9400"/>
<stop offset="0.4" stop-color="#E09800"/>
<stop offset="0.77" stop-color="#F7AC00"/>
<stop offset="1" stop-color="#FFB400"/>
</linearGradient>
<linearGradient id="paint2_linear_709_62" x1="46778" y1="63730.2" x2="46778" y2="42370.4" gradientUnits="userSpaceOnUse">
<stop stop-color="#DEE1EC"/>
<stop offset="0.52" stop-color="#EDEEF5"/>
<stop offset="1" stop-color="#F5F6FA"/>
</linearGradient>
<linearGradient id="paint3_linear_709_62" x1="96283.7" y1="63730.2" x2="96283.7" y2="42370.4" gradientUnits="userSpaceOnUse">
<stop stop-color="#DEE1EC"/>
<stop offset="0.52" stop-color="#EDEEF5"/>
<stop offset="1" stop-color="#F5F6FA"/>
</linearGradient>
<linearGradient id="paint4_linear_709_62" x1="121036" y1="63730.2" x2="121036" y2="42370.4" gradientUnits="userSpaceOnUse">
<stop offset="0.34" stop-color="#DB9400"/>
<stop offset="0.4" stop-color="#E09800"/>
<stop offset="0.77" stop-color="#F7AC00"/>
<stop offset="1" stop-color="#FFB400"/>
</linearGradient>
<linearGradient id="paint5_linear_709_62" x1="74920" y1="27373.3" x2="74920" y2="10229.3" gradientUnits="userSpaceOnUse">
<stop offset="0.34" stop-color="#DB9400"/>
<stop offset="0.4" stop-color="#E09800"/>
<stop offset="0.77" stop-color="#F7AC00"/>
<stop offset="1" stop-color="#FFB400"/>
</linearGradient>
<clipPath id="clip0_709_62">
<rect width="1136" height="576" fill="white"/>
</clipPath>
</defs>
</svg>
